Coordinates
version=1
nRows=11
nColumns=63
inDegrees=yes

Units are S.I. units (second, meters, Newtons, ...)
If the header above contains a line with 'inDegrees', this indicates whether rotational values are in degrees (yes) or radians (no).

endheader
time	pelvis_tilt	pelvis_list	pelvis_rotation	pelvis_tx	pelvis_ty	pelvis_tz	hip_flexion_r	hip_adduction_r	hip_rotation_r	knee_angle_r	knee_angle_r_beta	ankle_angle_r	subtalar_angle_r	mtp_angle_r	hip_flexion_l	hip_adduction_l	hip_rotation_l	knee_angle_l	knee_angle_l_beta	ankle_angle_l	subtalar_angle_l	mtp_angle_l	L5_S1_Flex_Ext	L5_S1_Lat_Bending	L5_S1_axial_rotation	L4_L5_Flex_Ext	L4_L5_Lat_Bending	L4_L5_axial_rotation	L3_L4_Flex_Ext	L3_L4_Lat_Bending	L3_L4_axial_rotation	L2_L3_Flex_Ext	L2_L3_Lat_Bending	L2_L3_axial_rotation	L1_L2_Flex_Ext	L1_L2_Lat_Bending	L1_L2_axial_rotation	L1_T12_Flex_Ext	L1_T12_Lat_Bending	L1_T12_axial_rotation	Abs_r3	Abs_r2	Abs_r1	Abs_t1	Abs_t2	neck_flexion	neck_bending	neck_rotation	arm_flex_r	arm_add_r	arm_rot_r	elbow_flex_r	pro_sup_r	wrist_flex_r	wrist_dev_r	arm_flex_l	arm_add_l	arm_rot_l	elbow_flex_l	pro_sup_l	wrist_flex_l	wrist_dev_l
1.372881	-1.383739	-1.704176	92.171022	0.154418	0.900138	0.703425	-1.017777	-2.011682	-16.753844	11.927906	0.208181	20.984655	18.755335	0.000000	1.620044	0.171177	-0.914042	14.432391	0.251893	22.459267	-1.215083	0.000000	-0.501533	0.435498	2.296409	-0.931397	0.579212	2.439934	-0.823969	1.058869	2.439934	-0.573202	1.058869	2.009358	-0.465724	0.888067	1.865832	-0.286576	0.674586	1.722307	-3.582400	4.926439	12.771937	0.000000	0.000000	15.070167	0.029175	-2.081554	11.879988	-10.764022	118.820128	1.463675	0.982087	-24.973124	-20.604023	24.344074	-6.106919	136.272468	0.195536	0.943587	-42.310135	-19.935129
1.389831	-1.786402	-1.240735	91.702938	0.157056	0.904804	0.706308	-1.301795	-2.299601	-16.105729	11.680444	0.203862	20.245177	18.662154	0.000000	0.992520	0.462907	-1.572989	13.803937	0.240924	20.777028	-1.299558	0.000000	-0.516063	0.378468	2.641595	-0.958380	0.503363	2.806695	-0.847840	0.920208	2.806695	-0.589808	0.920208	2.311395	-0.479216	0.771773	2.146296	-0.294878	0.586248	1.981196	-3.686185	4.281311	14.691758	0.000000	0.000000	12.695017	0.311923	-4.011620	12.400318	-11.034180	119.921570	1.096813	0.953908	-32.343610	-21.718868	26.499945	-5.433606	136.259853	0.159303	0.813690	-48.709766	-21.486961
1.406780	-2.266371	-0.691712	91.268388	0.160210	0.909792	0.709974	-1.626619	-2.648205	-15.492512	11.450445	0.199848	19.452797	18.535310	0.000000	0.346191	0.802931	-2.287938	13.223523	0.230794	18.952860	-1.317667	0.000000	-0.540121	0.306910	2.974009	-1.003058	0.408190	3.159885	-0.887364	0.746220	3.159885	-0.617304	0.746220	2.602258	-0.501556	0.625850	2.416382	-0.308625	0.475403	2.230507	-3.858028	3.471824	16.540546	0.000000	0.000000	10.135745	0.799600	-5.916542	13.275824	-11.336116	120.951366	0.765938	0.919595	-39.757074	-22.700554	28.915942	-4.832893	136.562820	0.135702	0.684977	-54.801194	-22.775944
1.423729	-2.836390	-0.050934	90.858986	0.163829	0.914941	0.714535	-1.981336	-3.083267	-14.918530	11.278249	0.196843	18.633598	18.367718	0.000000	-0.312592	1.210438	-3.053993	12.710768	0.221845	17.043365	-1.273222	0.000000	-0.575627	0.221086	3.276739	-1.068997	0.294045	3.481536	-0.945698	0.537550	3.481536	-0.657884	0.537550	2.867147	-0.534527	0.450840	2.662351	-0.328913	0.342463	2.457554	-4.111647	2.500974	18.224241	0.000000	0.000000	7.441720	1.466758	-7.644727	14.597118	-11.631074	122.036426	0.472809	0.880171	-47.020754	-23.495880	31.597481	-4.367356	137.296771	0.113436	0.651405	-60.426059	-23.706492
1.440678	-3.432296	0.728678	90.544857	0.167739	0.920126	0.720048	-2.427820	-3.534597	-14.468349	11.154191	0.194677	17.788641	18.173051	0.000000	-1.000669	1.617887	-3.805392	12.319336	0.215013	15.157331	-1.152316	0.000000	-0.629438	0.132141	3.524560	-1.168930	0.175748	3.744845	-1.034104	0.321288	3.744845	-0.719385	0.321288	3.083990	-0.584496	0.269463	2.863705	-0.359661	0.204687	2.643420	-4.496015	1.494809	19.602547	0.000000	0.000000	4.680946	2.187389	-9.069509	16.423665	-11.920340	123.157672	0.239986	0.841048	-53.843615	-24.098493	34.539494	-4.071759	138.350212	0.096504	0.618558	-65.244701	-24.297871
1.457627	-4.062751	1.653727	90.333356	0.171880	0.925176	0.726510	-2.966577	-4.012817	-14.134709	11.108476	0.193879	16.972551	17.942253	0.000000	-1.724220	2.032342	-4.529707	12.057574	0.210444	13.364374	-0.933138	0.000000	-0.703196	0.041151	3.705174	-1.305905	0.054731	3.936748	-1.155280	0.100054	3.936748	-0.803682	0.100054	3.242028	-0.652988	0.083915	3.010454	-0.401806	0.063743	2.778881	-5.022857	0.465507	20.607069	0.000000	0.000000	1.907911	2.922438	-10.084327	18.770780	-12.149810	124.414942	0.065521	0.803322	-60.039231	-24.481491	37.715037	-4.001399	139.770833	0.078720	0.630124	-69.152243	-24.509225
1.474576	-4.726949	2.739603	90.230407	0.176192	0.929934	0.733841	-3.615825	-4.517956	-13.904316	11.152600	0.194650	16.230929	17.663077	0.000000	-2.504162	2.458809	-5.189855	11.925472	0.208139	11.723053	-0.638796	0.000000	-0.799763	-0.050225	3.809365	-1.485240	-0.066799	4.047450	-1.313930	-0.122116	4.047450	-0.914049	-0.122116	3.333194	-0.742660	-0.102418	3.095109	-0.456985	-0.077798	2.857024	-5.712626	-0.568151	21.186545	0.000000	0.000000	-0.810309	3.601695	-10.645414	21.631493	-12.261503	125.837148	-0.055205	0.767850	-65.390108	-24.662185	41.079347	-4.215756	141.438623	0.060251	0.613192	-72.022815	-24.387263
1.491525	-5.419149	3.981006	90.257228	0.180561	0.934241	0.741916	-4.385552	-5.032212	-13.769174	11.287577	0.197005	15.610216	17.315879	0.000000	-3.339258	2.872314	-5.819061	11.943062	0.208446	10.322459	-0.141950	0.000000	-0.920072	-0.139098	3.822956	-1.708666	-0.185000	4.061891	-1.511587	-0.338203	4.061891	-1.051550	-0.338203	3.345087	-0.854379	-0.283649	3.106152	-0.525729	-0.215463	2.867217	-6.571983	-1.573505	21.262135	0.000000	0.000000	-3.392243	4.185694	-10.679444	25.009778	-12.204040	127.392143	-0.108281	0.735250	-69.697384	-24.648646	44.550424	-4.762465	142.689774	0.048532	0.602275	-73.666783	-24.189739
1.508475	-6.134659	5.377685	90.418795	0.184872	0.937960	0.750502	-5.290814	-5.547949	-13.727823	11.519237	0.201049	15.154553	16.903922	0.000000	-4.248677	3.268491	-6.386217	12.103835	0.211252	9.218823	0.548123	0.000000	-1.064950	-0.222823	3.742742	-1.977719	-0.296354	3.976663	-1.749606	-0.541772	3.976663	-1.217131	-0.541772	3.274899	-0.988913	-0.454380	3.040978	-0.608512	-0.345153	2.807056	-7.606832	-2.520617	20.816008	0.000000	0.000000	-5.783863	4.626226	-10.169975	28.876779	-11.937741	128.970456	-0.104474	0.702405	-72.776386	-24.519028	48.081394	-5.662583	143.427205	0.042161	0.574945	-74.001029	-24.134113
1.525424	-6.878446	6.921774	90.737610	0.189015	0.940986	0.759346	-6.352096	-6.057053	-13.812149	11.840511	0.206656	14.896255	16.445898	0.000000	-5.247155	3.640881	-6.863281	12.403104	0.216475	8.448745	1.437294	0.000000	-1.234700	-0.299871	3.569971	-2.292961	-0.398828	3.793094	-2.028488	-0.729105	3.793094	-1.411138	-0.729105	3.123725	-1.146542	-0.611496	2.900602	-0.705507	-0.464500	2.677478	-8.819337	-3.392196	19.855109	0.000000	0.000000	-7.935858	4.880116	-9.144767	33.181698	-11.450484	130.426760	-0.060874	0.665067	-74.452111	-24.399036	51.665960	-6.896930	143.675466	0.039566	0.533057	-73.009554	-24.362763
1.542373	-7.633775	8.601751	91.193943	0.192888	0.943247	0.768210	-7.568347	-6.547232	-13.998974	12.249429	0.213793	14.853379	15.962766	0.000000	-6.343334	3.980497	-7.239787	12.828459	0.223899	8.023397	2.466813	0.000000	-1.428882	-0.367190	3.318466	-2.653578	-0.488363	3.525870	-2.347511	-0.892786	3.525870	-1.633070	-0.892786	2.903658	-1.326860	-0.748774	2.696254	-0.816463	-0.568777	2.488850	-10.206364	-4.153728	18.456313	0.000000	0.000000	-9.805210	4.945756	-7.666244	37.866362	-10.755390	131.594065	-0.002183	0.622474	-74.567598	-24.424162	55.308558	-8.373759	143.625240	0.037933	0.487932	-71.127953	-24.711790
